<?xml version="1.0" encoding="utf-8"?>
<!-- Generator: Adobe Illustrator 23.0.3, SVG Export Plug-In . SVG Version: 6.00 Build 0)  -->
<svg version="1.1" id="Layer_1" xmlns="http://www.w3.org/2000/svg" xmlns:xlink="http://www.w3.org/1999/xlink" x="0px" y="0px"
	 viewBox="0 0 150 53" style="enable-background:new 0 0 150 53;" xml:space="preserve">
<style type="text/css">
	.st0{fill:#D41813;}
	.st1{fill:#FFFFFF;}
	.st2{fill:#D82626;}
	.st3{fill-rule:evenodd;clip-rule:evenodd;fill:#1A1A18;}
</style>
<path class="st0" d="M29.8,19.2c0,0-0.3-8.4-9.7-9.6H4.7v29.6l25.1,0L29.8,19.2z"/>
<polygon class="st1" points="9.2,39.3 13.8,33.3 10.1,32.5 20.7,24.9 18,37.7 15.5,34.2 11.6,39.3 "/>
<path class="st2" d="M128.6,45.7h1.3l2.9,3.6v-2.7c0-0.3,0-0.5-0.1-0.5c-0.1-0.1-0.2-0.1-0.4-0.1h-0.2v-0.1h1.7v0.1h-0.2
	c-0.2,0-0.3,0.1-0.4,0.2c-0.1,0.1-0.1,0.2-0.1,0.5v4h-0.1l-3.1-3.8v2.9c0,0.3,0,0.5,0.1,0.5c0.1,0.1,0.2,0.1,0.4,0.1h0.2v0.1h-1.7
	v-0.1h0.2c0.2,0,0.3-0.1,0.4-0.2c0.1-0.1,0.1-0.2,0.1-0.5v-3.3c-0.1-0.2-0.2-0.3-0.3-0.3c-0.1-0.1-0.2-0.1-0.3-0.1
	c-0.1,0-0.2,0-0.3,0V45.7z M123.9,45.8c-0.4,0-0.8,0.2-1,0.5c-0.3,0.4-0.5,1-0.5,1.7c0,0.8,0.2,1.4,0.5,1.8c0.3,0.3,0.6,0.5,1,0.5
	c0.4,0,0.8-0.2,1.1-0.5c0.3-0.3,0.4-0.9,0.4-1.6c0-0.8-0.2-1.4-0.5-1.8C124.7,46,124.4,45.8,123.9,45.8z M124,45.6
	c0.6,0,1.1,0.2,1.6,0.7c0.4,0.5,0.7,1,0.7,1.7c0,0.7-0.2,1.3-0.7,1.8c-0.5,0.5-1,0.7-1.6,0.7c-0.6,0-1.2-0.2-1.6-0.7
	c-0.4-0.5-0.7-1.1-0.7-1.8c0-0.8,0.3-1.4,0.8-1.8C122.9,45.8,123.4,45.6,124,45.6z M119.1,50.3v0.1h-2v-0.1h0.2
	c0.2,0,0.3-0.1,0.4-0.2c0.1-0.1,0.1-0.3,0.1-0.5v-3.1c0-0.2,0-0.4,0-0.5c0-0.1-0.1-0.1-0.1-0.1c-0.1-0.1-0.2-0.1-0.3-0.1h-0.2v-0.1
	h2v0.1h-0.2c-0.2,0-0.3,0.1-0.4,0.2c-0.1,0.1-0.1,0.3-0.1,0.5v3.1c0,0.2,0,0.4,0,0.5c0,0.1,0.1,0.1,0.1,0.1c0.1,0.1,0.2,0.1,0.3,0.1
	H119.1z M114.5,45.7l0,1.1h-0.1c0-0.2-0.1-0.3-0.1-0.4c-0.1-0.1-0.2-0.2-0.3-0.3c-0.1-0.1-0.3-0.1-0.5-0.1h-0.7v3.6
	c0,0.3,0,0.5,0.1,0.5c0.1,0.1,0.2,0.1,0.4,0.1h0.2v0.1h-2v-0.1h0.2c0.2,0,0.3-0.1,0.4-0.2c0.1-0.1,0.1-0.2,0.1-0.5V46h-0.6
	c-0.2,0-0.4,0-0.5,0c-0.1,0-0.2,0.1-0.3,0.3c-0.1,0.1-0.1,0.3-0.2,0.5h-0.1l0-1.1H114.5z M107.1,48.6l-0.8-1.9l-0.8,1.9H107.1z
	 M107.2,48.9h-1.8l-0.3,0.7c-0.1,0.2-0.1,0.3-0.1,0.4c0,0.1,0,0.1,0.1,0.2c0.1,0.1,0.2,0.1,0.4,0.1v0.1H104v-0.1
	c0.2,0,0.3-0.1,0.4-0.1c0.1-0.1,0.2-0.3,0.4-0.7l1.7-3.9h0.1l1.6,3.9c0.1,0.3,0.3,0.5,0.4,0.6c0.1,0.1,0.3,0.1,0.5,0.2v0.1h-1.9
	v-0.1c0.2,0,0.3,0,0.4-0.1c0.1-0.1,0.1-0.1,0.1-0.2c0-0.1,0-0.3-0.1-0.5L107.2,48.9z M96.5,45.7h1.3l2.9,3.6v-2.7
	c0-0.3,0-0.5-0.1-0.5c-0.1-0.1-0.2-0.1-0.4-0.1H100v-0.1h1.7v0.1h-0.2c-0.2,0-0.3,0.1-0.4,0.2c-0.1,0.1-0.1,0.2-0.1,0.5v4h-0.1
	l-3.1-3.8v2.9c0,0.3,0,0.5,0.1,0.5c0.1,0.1,0.2,0.1,0.4,0.1h0.2v0.1h-1.7v-0.1H97c0.2,0,0.3-0.1,0.4-0.2c0.1-0.1,0.1-0.2,0.1-0.5
	v-3.3c-0.1-0.2-0.2-0.3-0.3-0.3c-0.1-0.1-0.2-0.1-0.3-0.1c-0.1,0-0.2,0-0.3,0V45.7z M94.3,50.3v0.1h-2v-0.1h0.2
	c0.2,0,0.3-0.1,0.4-0.2c0.1-0.1,0.1-0.3,0.1-0.5v-3.1c0-0.2,0-0.4,0-0.5c0-0.1-0.1-0.1-0.1-0.1c-0.1-0.1-0.2-0.1-0.3-0.1h-0.2v-0.1
	h2v0.1h-0.2c-0.2,0-0.3,0.1-0.4,0.2c-0.1,0.1-0.1,0.3-0.1,0.5v3.1c0,0.2,0,0.4,0,0.5c0,0.1,0.1,0.1,0.1,0.1c0.1,0.1,0.2,0.1,0.3,0.1
	H94.3z M89.2,45.6l0.1,1.5h-0.1c-0.1-0.4-0.3-0.6-0.5-0.8c-0.3-0.3-0.6-0.4-1.1-0.4c-0.6,0-1.1,0.2-1.4,0.7C86,47,85.9,47.4,85.9,48
	c0,0.5,0.1,0.9,0.3,1.2c0.2,0.4,0.4,0.6,0.7,0.8c0.3,0.2,0.6,0.3,0.9,0.3c0.2,0,0.3,0,0.5-0.1c0.2,0,0.3-0.1,0.5-0.2v-1.4
	c0-0.2,0-0.4-0.1-0.5c0-0.1-0.1-0.1-0.2-0.2c-0.1,0-0.2-0.1-0.4-0.1v-0.1h1.8V48h-0.1c-0.2,0-0.3,0.1-0.4,0.2c0,0.1-0.1,0.3-0.1,0.5
	v1.4c-0.3,0.1-0.5,0.3-0.8,0.3c-0.3,0.1-0.5,0.1-0.9,0.1c-0.9,0-1.6-0.3-2.1-0.9c-0.4-0.4-0.5-0.9-0.5-1.5c0-0.4,0.1-0.8,0.3-1.2
	c0.2-0.5,0.6-0.8,1-1c0.3-0.2,0.8-0.3,1.2-0.3c0.2,0,0.3,0,0.5,0c0.1,0,0.3,0.1,0.6,0.2c0.1,0,0.2,0.1,0.3,0.1c0,0,0.1,0,0.1-0.1
	c0,0,0.1-0.1,0.1-0.2H89.2z M80.7,48.6L80,46.7l-0.8,1.9H80.7z M80.9,48.9H79l-0.3,0.7c-0.1,0.2-0.1,0.3-0.1,0.4
	c0,0.1,0,0.1,0.1,0.2c0.1,0.1,0.2,0.1,0.4,0.1v0.1h-1.5v-0.1c0.2,0,0.3-0.1,0.4-0.1c0.1-0.1,0.2-0.3,0.4-0.7l1.7-3.9h0.1l1.6,3.9
	c0.1,0.3,0.3,0.5,0.4,0.6c0.1,0.1,0.3,0.1,0.5,0.2v0.1h-1.9v-0.1c0.2,0,0.3,0,0.4-0.1c0.1-0.1,0.1-0.1,0.1-0.2c0-0.1,0-0.3-0.1-0.5
	L80.9,48.9z M72,50.4l-1.8-4v3.2c0,0.3,0,0.5,0.1,0.5c0.1,0.1,0.2,0.1,0.4,0.1h0.2v0.1h-1.7v-0.1h0.2c0.2,0,0.3-0.1,0.4-0.2
	c0.1-0.1,0.1-0.2,0.1-0.5v-3.1c0-0.2,0-0.4-0.1-0.5c0-0.1-0.1-0.1-0.2-0.2c-0.1,0-0.2-0.1-0.4-0.1v-0.1h1.4l1.7,3.7l1.7-3.7h1.3v0.1
	h-0.2c-0.2,0-0.3,0.1-0.4,0.2c-0.1,0.1-0.1,0.2-0.1,0.5v3.1c0,0.3,0,0.5,0.1,0.5c0.1,0.1,0.2,0.1,0.4,0.1h0.2v0.1h-2v-0.1h0.2
	c0.2,0,0.3-0.1,0.4-0.2c0.1-0.1,0.1-0.2,0.1-0.5v-3.2l-1.8,4H72z M66.8,50.3v0.1h-2v-0.1H65c0.2,0,0.3-0.1,0.4-0.2
	c0.1-0.1,0.1-0.3,0.1-0.5v-3.1c0-0.2,0-0.4,0-0.5c0-0.1-0.1-0.1-0.1-0.1c-0.1-0.1-0.2-0.1-0.3-0.1h-0.2v-0.1h2v0.1h-0.2
	c-0.2,0-0.3,0.1-0.4,0.2c-0.1,0.1-0.1,0.3-0.1,0.5v3.1c0,0.2,0,0.4,0,0.5c0,0.1,0.1,0.1,0.1,0.1c0.1,0.1,0.2,0.1,0.3,0.1H66.8z
	 M56,46v1.9h1c0.3,0,0.4,0,0.5-0.1c0.1-0.1,0.2-0.3,0.2-0.6h0.1v1.6h-0.1c0-0.2-0.1-0.4-0.1-0.4c0-0.1-0.1-0.1-0.2-0.2
	c-0.1,0-0.2-0.1-0.4-0.1h-1v1.6c0,0.2,0,0.3,0,0.4c0,0,0.1,0.1,0.1,0.1c0,0,0.1,0,0.3,0h0.8c0.3,0,0.5,0,0.6-0.1
	c0.1,0,0.2-0.1,0.3-0.2c0.1-0.1,0.3-0.4,0.4-0.7h0.1l-0.4,1.2h-3.6v-0.1h0.2c0.1,0,0.2,0,0.3-0.1c0.1,0,0.1-0.1,0.2-0.2
	c0-0.1,0-0.2,0-0.5v-3.1c0-0.3,0-0.5-0.1-0.6c-0.1-0.1-0.2-0.1-0.4-0.1h-0.2v-0.1h3.6l0.1,1h-0.1c0-0.3-0.1-0.4-0.2-0.5
	c-0.1-0.1-0.1-0.2-0.3-0.2c-0.1,0-0.3-0.1-0.5-0.1H56z M52.1,45.7l0,1.1H52c0-0.2-0.1-0.3-0.1-0.4c-0.1-0.1-0.2-0.2-0.3-0.3
	C51.5,46,51.4,46,51.2,46h-0.7v3.6c0,0.3,0,0.5,0.1,0.5c0.1,0.1,0.2,0.1,0.4,0.1h0.2v0.1h-2v-0.1h0.2c0.2,0,0.3-0.1,0.4-0.2
	c0.1-0.1,0.1-0.2,0.1-0.5V46h-0.6c-0.2,0-0.4,0-0.5,0c-0.1,0-0.2,0.1-0.3,0.3c-0.1,0.1-0.1,0.3-0.2,0.5h-0.1l0-1.1H52.1z M45.7,50.3
	v0.1h-2v-0.1h0.2c0.2,0,0.3-0.1,0.4-0.2c0.1-0.1,0.1-0.3,0.1-0.5v-3.1c0-0.2,0-0.4,0-0.5c0-0.1-0.1-0.1-0.1-0.1
	c-0.1-0.1-0.2-0.1-0.3-0.1h-0.2v-0.1h2v0.1h-0.2c-0.2,0-0.3,0.1-0.4,0.2C45,46.1,45,46.3,45,46.5v3.1c0,0.2,0,0.4,0,0.5
	c0,0.1,0.1,0.1,0.1,0.1c0.1,0.1,0.2,0.1,0.3,0.1H45.7z M40.7,45.6v1.6h-0.1c0-0.3-0.1-0.6-0.2-0.7c-0.1-0.2-0.3-0.3-0.5-0.4
	c-0.2-0.1-0.4-0.2-0.6-0.2c-0.2,0-0.4,0.1-0.6,0.2c-0.2,0.1-0.2,0.3-0.2,0.5c0,0.1,0.1,0.3,0.2,0.4c0.1,0.2,0.5,0.4,1,0.7
	c0.4,0.2,0.7,0.4,0.9,0.5c0.2,0.1,0.3,0.3,0.4,0.4c0.1,0.2,0.1,0.4,0.1,0.5c0,0.4-0.1,0.7-0.4,0.9c-0.3,0.3-0.6,0.4-1.1,0.4
	c-0.1,0-0.3,0-0.4,0c-0.1,0-0.2-0.1-0.4-0.1c-0.2-0.1-0.4-0.1-0.4-0.1c-0.1,0-0.1,0-0.1,0.1c0,0-0.1,0.1-0.1,0.2h-0.1v-1.6H38
	c0.1,0.3,0.1,0.6,0.2,0.8c0.1,0.2,0.3,0.3,0.5,0.4c0.2,0.1,0.4,0.2,0.7,0.2c0.3,0,0.5-0.1,0.7-0.2c0.2-0.2,0.3-0.3,0.3-0.5
	c0-0.1,0-0.2-0.1-0.4c-0.1-0.1-0.2-0.2-0.3-0.3c-0.1-0.1-0.3-0.2-0.7-0.4c-0.4-0.2-0.7-0.4-0.9-0.5c-0.2-0.1-0.3-0.3-0.4-0.4
	c-0.1-0.2-0.1-0.3-0.1-0.5c0-0.3,0.1-0.6,0.4-0.9c0.3-0.2,0.6-0.4,1-0.4c0.3,0,0.5,0.1,0.8,0.2c0.1,0.1,0.2,0.1,0.3,0.1
	c0.1,0,0.1,0,0.1-0.1c0,0,0.1-0.1,0.1-0.2H40.7z M35.1,50.3v0.1h-2v-0.1h0.2c0.2,0,0.3-0.1,0.4-0.2c0.1-0.1,0.1-0.3,0.1-0.5v-3.1
	c0-0.2,0-0.4,0-0.5c0-0.1-0.1-0.1-0.1-0.1c-0.1-0.1-0.2-0.1-0.3-0.1h-0.2v-0.1h2v0.1h-0.2c-0.2,0-0.3,0.1-0.4,0.2
	c-0.1,0.1-0.1,0.3-0.1,0.5v3.1c0,0.2,0,0.4,0,0.5c0,0.1,0.1,0.1,0.1,0.1c0.1,0.1,0.2,0.1,0.3,0.1H35.1z M29,45.8v-0.1h1.7v0.1h-0.2
	c-0.2,0-0.3,0.1-0.4,0.2c0,0.1-0.1,0.2-0.1,0.5v1.9c0,0.5,0,0.8-0.1,1.1c-0.1,0.3-0.3,0.5-0.6,0.7c-0.3,0.2-0.6,0.3-1.1,0.3
	c-0.5,0-0.9-0.1-1.2-0.3c-0.3-0.2-0.5-0.4-0.6-0.7c-0.1-0.2-0.1-0.6-0.1-1.2v-1.8c0-0.3,0-0.5-0.1-0.6c-0.1-0.1-0.2-0.1-0.4-0.1
	h-0.2v-0.1h2v0.1h-0.2c-0.2,0-0.3,0.1-0.4,0.2C27,46.1,27,46.3,27,46.5v2.1c0,0.2,0,0.4,0.1,0.6c0,0.2,0.1,0.4,0.2,0.6
	c0.1,0.1,0.2,0.2,0.4,0.3c0.2,0.1,0.4,0.1,0.6,0.1c0.3,0,0.6-0.1,0.8-0.2c0.2-0.1,0.4-0.3,0.5-0.5c0.1-0.2,0.1-0.6,0.1-1.1v-1.9
	c0-0.3,0-0.5-0.1-0.6c-0.1-0.1-0.2-0.2-0.4-0.2H29z M20.9,45.9c-0.4,0-0.8,0.2-1,0.5c-0.3,0.4-0.5,1-0.5,1.7c0,0.8,0.2,1.4,0.5,1.8
	c0.3,0.3,0.6,0.5,1,0.5c0.4,0,0.8-0.2,1.1-0.5c0.3-0.4,0.5-0.9,0.5-1.7c0-0.6-0.1-1-0.3-1.4c-0.1-0.3-0.3-0.5-0.5-0.7
	C21.4,45.9,21.2,45.9,20.9,45.9z M21.5,50.5c0.2,0.4,0.5,0.7,0.8,0.9c0.3,0.2,0.6,0.3,0.9,0.3v0.1c-0.3,0-0.7-0.1-1-0.2
	c-0.4-0.1-0.7-0.3-1-0.5c-0.3-0.2-0.6-0.4-0.8-0.7c-0.3-0.1-0.6-0.3-0.8-0.4c-0.3-0.2-0.5-0.5-0.7-0.8c-0.2-0.3-0.2-0.7-0.2-1.2
	c0-0.7,0.2-1.3,0.7-1.8c0.5-0.5,1-0.7,1.7-0.7c0.6,0,1.2,0.2,1.6,0.7c0.5,0.5,0.7,1.1,0.7,1.8c0,0.6-0.2,1.1-0.5,1.5
	C22.4,50,22,50.3,21.5,50.5z M14,47.8l1,1.5c0.3,0.4,0.5,0.7,0.6,0.8c0.1,0.1,0.3,0.2,0.5,0.2v0.1h-2v-0.1c0.1,0,0.2,0,0.3,0
	c0,0,0.1-0.1,0.1-0.1c0,0,0-0.1,0-0.1c0-0.1,0-0.1,0-0.2c0,0-0.1-0.1-0.2-0.3l-0.8-1.2l-1,1.3c-0.1,0.1-0.2,0.2-0.2,0.3
	c0,0,0,0.1,0,0.1c0,0.1,0,0.1,0.1,0.2c0.1,0.1,0.2,0.1,0.4,0.1v0.1h-1.7v-0.1c0.1,0,0.2,0,0.3-0.1c0.1-0.1,0.3-0.1,0.4-0.2
	c0.1-0.1,0.3-0.3,0.4-0.5l1.1-1.4l-0.9-1.4c-0.3-0.4-0.5-0.6-0.6-0.7c-0.2-0.1-0.4-0.2-0.6-0.2v-0.1h2.2v0.1c-0.2,0-0.3,0-0.4,0.1
	C13,46,12.9,46,12.9,46.1c0,0.1,0.1,0.2,0.2,0.4l0.7,1.1l0.8-1.1c0.1-0.1,0.2-0.2,0.2-0.3c0,0,0-0.1,0-0.1c0,0,0-0.1,0-0.1
	c0,0-0.1-0.1-0.1-0.1c-0.1,0-0.2,0-0.3,0v-0.1H16v0.1c-0.1,0-0.2,0-0.3,0.1c-0.1,0.1-0.2,0.1-0.3,0.2c-0.1,0.1-0.3,0.3-0.4,0.5
	L14,47.8z M6.1,46v1.9h1c0.3,0,0.4,0,0.5-0.1c0.1-0.1,0.2-0.3,0.2-0.6H8v1.6H7.9c0-0.2-0.1-0.4-0.1-0.4c0-0.1-0.1-0.1-0.2-0.2
	c-0.1,0-0.2-0.1-0.4-0.1h-1v1.6c0,0.2,0,0.3,0,0.4c0,0,0.1,0.1,0.1,0.1c0,0,0.1,0,0.3,0h0.8c0.3,0,0.5,0,0.6-0.1
	c0.1,0,0.2-0.1,0.3-0.2c0.1-0.1,0.3-0.4,0.4-0.7h0.1l-0.4,1.2H4.7v-0.1h0.2c0.1,0,0.2,0,0.3-0.1c0.1,0,0.1-0.1,0.2-0.2
	c0-0.1,0-0.2,0-0.5v-3.1c0-0.3,0-0.5-0.1-0.6c-0.1-0.1-0.2-0.1-0.4-0.1H4.7v-0.1h3.6l0.1,1H8.3c0-0.3-0.1-0.4-0.2-0.5
	C8.1,46.1,8,46.1,7.9,46C7.8,46,7.6,46,7.4,46H6.1z"/>
<path d="M138.8,6.9h0.5c0.3,0,0.5,0,0.6,0c0.1,0,0.1-0.1,0.2-0.2c0-0.1,0.1-0.2,0.1-0.3c0-0.1,0-0.2-0.1-0.3c0-0.1-0.1-0.1-0.2-0.2
	c-0.1,0-0.2,0-0.5,0h-0.5V6.9z M138.2,9.1V5.2h1.3c0.3,0,0.6,0,0.7,0.1c0.1,0.1,0.3,0.2,0.4,0.4c0.1,0.2,0.1,0.4,0.1,0.6
	c0,0.3-0.1,0.5-0.2,0.7c-0.1,0.2-0.4,0.3-0.6,0.3c0.1,0.1,0.3,0.2,0.3,0.3c0.1,0.1,0.2,0.3,0.4,0.6l0.4,0.8h-0.8l-0.5-0.8
	c-0.2-0.3-0.3-0.5-0.3-0.6c-0.1-0.1-0.1-0.1-0.2-0.2c-0.1,0-0.2,0-0.3,0h-0.1v1.6H138.2z"/>
<path class="st3" d="M139.6,2.5c2.6,0,4.7,2.1,4.7,4.7c0,2.6-2.1,4.7-4.7,4.7c-2.6,0-4.7-2.1-4.7-4.7C134.9,4.6,137,2.5,139.6,2.5
	 M139.6,2c2.8,0,5.1,2.3,5.1,5.1c0,2.8-2.3,5.1-5.1,5.1c-2.8,0-5.1-2.3-5.1-5.1C134.4,4.3,136.7,2,139.6,2z"/>
<path d="M132.6,9.6l-18.3,27.9h5.9c2.8,0,4.8-0.2,5.9-0.5c1.8-0.5,3.4-1.5,4.7-2.9c1.3-1.4,2.2-3.3,2.7-5.6h0.9l-1.3,10.7h-28.5
	l18.3-28h-4.6c-1.8,0-3,0.1-3.5,0.2c-1.1,0.2-2.1,0.6-3,1.1c-0.9,0.6-1.7,1.3-2.3,2.2c-0.6,0.9-1.1,2.1-1.5,3.5h-0.9l0.8-8.6H132.6z
	 M82.3,11.3v23.1c0,1.2,0.1,2,0.2,2.2c0.1,0.3,0.3,0.5,0.6,0.6c0.4,0.2,1,0.3,1.8,0.3c2.6,0,4.5-0.8,5.9-2.5
	c1.8-2.2,2.8-5.7,2.8-10.4c0-3.8-0.6-6.8-1.9-9.1c-1-1.8-2.3-3-3.9-3.6C86.7,11.5,84.9,11.3,82.3,11.3z M70.5,39.2v-0.8h1
	c0.9,0,1.6-0.1,2.1-0.4c0.5-0.3,0.8-0.6,1.1-1.1c0.1-0.3,0.2-1.2,0.2-2.8V14.7c0-1.5-0.1-2.5-0.3-2.9c-0.2-0.4-0.5-0.7-1-1
	c-0.5-0.3-1.2-0.4-2.1-0.4h-1V9.6h13.9c3.7,0,6.7,0.5,9,1.4c2.8,1.2,4.9,3,6.3,5.3c1.4,2.4,2.1,5.1,2.1,8.1c0,2.1-0.4,4-1.1,5.7
	c-0.7,1.7-1.6,3.2-2.7,4.3c-1.1,1.1-2.4,2.1-3.9,2.7c-1.5,0.7-3.3,1.2-5.4,1.6c-0.9,0.2-2.4,0.3-4.4,0.3H70.5z M47.6,9.6L62.9,28
	V15.3c0-1.8-0.3-3-0.8-3.6c-0.7-0.9-2-1.3-3.7-1.2V9.6h10.3v0.8c-1.3,0.2-2.2,0.4-2.7,0.6c-0.4,0.3-0.8,0.7-1.1,1.3
	c-0.3,0.6-0.4,1.6-0.4,3v24.6h-0.8L42.8,15.2v18.8c0,1.7,0.4,2.9,1.2,3.5c0.8,0.6,1.8,0.9,2.8,0.9h0.7v0.8H36.5v-0.8
	c1.7,0,2.9-0.3,3.6-1c0.7-0.7,1-1.8,1-3.4V13.2l-0.7-0.8c-0.7-0.8-1.2-1.3-1.7-1.6c-0.5-0.3-1.2-0.4-2.2-0.4V9.6H47.6z"/>
</svg>
